<svg width="14" height="14" viewBox="0 0 14 14" fill="none" xmlns="http://www.w3.org/2000/svg">
<g clip-path="url(#clip0_5323_28)">
<path fill-rule="evenodd" clip-rule="evenodd" d="M6.99967 1.75016C4.10018 1.75016 1.74967 4.10067 1.74967 7.00016C1.74967 9.89966 4.10018 12.2502 6.99967 12.2502C9.89917 12.2502 12.2497 9.89966 12.2497 7.00016C12.2497 4.10067 9.89917 1.75016 6.99967 1.75016ZM0.583008 7.00016C0.583008 3.45634 3.45585 0.583496 6.99967 0.583496C10.5435 0.583496 13.4163 3.45634 13.4163 7.00016C13.4163 10.544 10.5435 13.4168 6.99967 13.4168C3.45585 13.4168 0.583008 10.544 0.583008 7.00016ZM6.99967 2.91683C7.32184 2.91683 7.58301 3.178 7.58301 3.50016V6.05631L9.07213 5.31175C9.36029 5.16767 9.71068 5.28447 9.85476 5.57262C9.99883 5.86078 9.88204 6.21117 9.59388 6.35525L7.26055 7.52191C7.07972 7.61233 6.86498 7.60266 6.693 7.49638C6.52102 7.39009 6.41634 7.20233 6.41634 7.00016V3.50016C6.41634 3.178 6.67751 2.91683 6.99967 2.91683Z" fill="#F9FAFA"/>
</g>
<defs>
<clipPath id="clip0_5323_28">
<rect width="14" height="14" fill="white"/>
</clipPath>
</defs>
</svg>
