<svg width="14" height="14" viewBox="0 0 14 14" fill="none" xmlns="http://www.w3.org/2000/svg">
<path fill-rule="evenodd" clip-rule="evenodd" d="M5.44381 1.94365C5.30693 2.08053 5.25008 2.2313 5.25008 2.33325V2.91659H8.75008V2.33325C8.75008 2.2313 8.69323 2.08053 8.55635 1.94365C8.41947 1.80677 8.2687 1.74992 8.16675 1.74992H5.83341C5.73147 1.74992 5.58069 1.80677 5.44381 1.94365ZM9.91675 2.91659V2.33325C9.91675 1.85187 9.68193 1.41931 9.38131 1.11869C9.08069 0.818071 8.64813 0.583252 8.16675 0.583252H5.83341C5.35203 0.583252 4.91947 0.818071 4.61885 1.11869C4.31823 1.41931 4.08341 1.85187 4.08341 2.33325V2.91659H1.75008C1.42792 2.91659 1.16675 3.17775 1.16675 3.49992C1.16675 3.82208 1.42792 4.08325 1.75008 4.08325H2.33341V11.6666C2.33341 12.148 2.56823 12.5805 2.86885 12.8811C3.16947 13.1818 3.60203 13.4166 4.08341 13.4166H9.91675C10.3981 13.4166 10.8307 13.1818 11.1313 12.8811C11.4319 12.5805 11.6667 12.148 11.6667 11.6666V4.08325H12.2501C12.5722 4.08325 12.8334 3.82208 12.8334 3.49992C12.8334 3.17775 12.5722 2.91659 12.2501 2.91659H9.91675ZM3.50008 4.08325V11.6666C3.50008 11.7685 3.55693 11.9193 3.69381 12.0562C3.83069 12.1931 3.98147 12.2499 4.08341 12.2499H9.91675C10.0187 12.2499 10.1695 12.1931 10.3064 12.0562C10.4432 11.9193 10.5001 11.7685 10.5001 11.6666V4.08325H3.50008Z" fill="#D03E3E"/>
</svg>
