<svg width="14" height="14" viewBox="0 0 14 14" fill="none" xmlns="http://www.w3.org/2000/svg">
<path fill-rule="evenodd" clip-rule="evenodd" d="M10.4282 2.33366C10.2545 2.33366 10.088 2.40266 9.96513 2.52548L2.95872 9.5319C2.8894 9.60118 2.83854 9.68692 2.81105 9.78098C2.81104 9.78102 2.81106 9.78094 2.81105 9.78098L2.47124 10.9456L3.63584 10.6058L3.63614 10.6057C3.73035 10.5782 3.81613 10.5275 3.88551 10.4581L10.8913 3.45171C11.0141 3.32889 11.0832 3.16229 11.0832 2.98859C11.0832 2.81489 11.0142 2.64831 10.8913 2.52548C10.7685 2.40266 10.6019 2.33366 10.4282 2.33366ZM9.14017 1.70053C9.48179 1.35891 9.94512 1.16699 10.4282 1.16699C10.9114 1.16699 11.3747 1.35891 11.7163 1.70053C12.0579 2.04214 12.2498 2.50547 12.2498 2.98859C12.2498 3.4717 12.0579 3.93503 11.7163 4.27665L4.71048 11.283C4.50239 11.4911 4.24516 11.6434 3.96263 11.7257C3.96253 11.7258 3.96243 11.7258 3.96233 11.7258L2.2873 12.2146C2.13671 12.2585 1.97703 12.2611 1.82508 12.2222C1.67313 12.1833 1.53444 12.1042 1.42352 11.9933C1.3126 11.8824 1.23354 11.7437 1.19461 11.5917C1.15568 11.4398 1.15832 11.2802 1.20224 11.1296L1.69109 9.45419C1.77352 9.17191 1.92578 8.91484 2.13376 8.70694C2.13372 8.70698 2.1338 8.7069 2.13376 8.70694L9.14017 1.70053ZM6.41665 11.6668C6.41665 11.3447 6.67782 11.0835 6.99999 11.0835H12.25C12.5722 11.0835 12.8333 11.3447 12.8333 11.6668C12.8333 11.989 12.5722 12.2502 12.25 12.2502H6.99999C6.67782 12.2502 6.41665 11.989 6.41665 11.6668Z" fill="#1E2024"/>
</svg>
