<svg width="16" height="16" viewBox="0 0 16 16" fill="none" xmlns="http://www.w3.org/2000/svg">
<g clip-path="url(#clip0_5306_35)">
<path fill-rule="evenodd" clip-rule="evenodd" d="M7.99996 2.00002C4.68625 2.00002 1.99996 4.68631 1.99996 8.00002C1.99996 11.3137 4.68625 14 7.99996 14C11.3137 14 14 11.3137 14 8.00002C14 4.68631 11.3137 2.00002 7.99996 2.00002ZM0.666626 8.00002C0.666626 3.94993 3.94987 0.666687 7.99996 0.666687C12.05 0.666687 15.3333 3.94993 15.3333 8.00002C15.3333 12.0501 12.05 15.3334 7.99996 15.3334C3.94987 15.3334 0.666626 12.0501 0.666626 8.00002ZM7.99996 3.33335C8.36815 3.33335 8.66663 3.63183 8.66663 4.00002V6.92133L10.3685 6.0704C10.6978 5.90574 11.0983 6.03923 11.2629 6.36854C11.4276 6.69786 11.2941 7.09831 10.9648 7.26297L8.2981 8.59631C8.09144 8.69963 7.84602 8.68859 7.64947 8.56712C7.45293 8.44565 7.33329 8.23107 7.33329 8.00002V4.00002C7.33329 3.63183 7.63177 3.33335 7.99996 3.33335Z" fill="#355EC5"/>
</g>
<defs>
<clipPath id="clip0_5306_35">
<rect width="16" height="16" fill="white"/>
</clipPath>
</defs>
</svg>
