<svg width="16" height="16" viewBox="0 0 16 16" fill="none" xmlns="http://www.w3.org/2000/svg">
<g clip-path="url(#clip0_5306_352)">
<path fill-rule="evenodd" clip-rule="evenodd" d="M11.0001 2.80075C9.81141 2.11486 8.42347 1.85723 7.06778 2.07082C5.71209 2.28441 4.4706 2.9563 3.55033 3.97445C2.63007 4.9926 2.08667 6.29547 2.01074 7.66578C1.93482 9.03609 2.33096 10.391 3.13311 11.5046C3.93526 12.6182 5.09492 13.4231 6.41872 13.7852C7.74252 14.1472 9.15042 14.0445 10.4076 13.4941C11.6649 12.9438 12.6954 11.979 13.3275 10.7608C13.9595 9.5426 14.1548 8.14453 13.8807 6.79975C13.8072 6.43897 14.0401 6.08691 14.4009 6.0134C14.7617 5.93988 15.1137 6.17276 15.1872 6.53353C15.5221 8.17715 15.2835 9.88591 14.511 11.3748C13.7385 12.8638 12.4789 14.0429 10.9423 14.7156C9.40573 15.3882 7.68495 15.5138 6.06698 15.0713C4.44901 14.6288 3.03164 13.645 2.05123 12.2839C1.07083 10.9229 0.586652 9.26684 0.679449 7.59202C0.772246 5.91719 1.43641 4.3248 2.56117 3.08039C3.68594 1.83598 5.20332 1.01478 6.86028 0.753732C8.51723 0.492682 10.2136 0.807564 11.6665 1.64587C11.9854 1.82987 12.0948 2.23757 11.9108 2.55648C11.7267 2.8754 11.3191 2.98476 11.0001 2.80075ZM15.1381 2.19524C15.3984 2.45559 15.3984 2.8777 15.1381 3.13805L8.47139 9.80471C8.21104 10.0651 7.78893 10.0651 7.52858 9.80471L5.52858 7.80471C5.26823 7.54436 5.26823 7.12225 5.52858 6.8619C5.78893 6.60155 6.21104 6.60155 6.47139 6.8619L7.99998 8.3905L14.1952 2.19524C14.4556 1.93489 14.8777 1.93489 15.1381 2.19524Z" fill="#508B26"/>
</g>
<defs>
<clipPath id="clip0_5306_352">
<rect width="16" height="16" fill="white"/>
</clipPath>
</defs>
</svg>
