<svg width="16" height="16" viewBox="0 0 16 16" fill="none" xmlns="http://www.w3.org/2000/svg">
<g clip-path="url(#clip0_5306_288)">
<path fill-rule="evenodd" clip-rule="evenodd" d="M7.99996 1.99999C4.68625 1.99999 1.99996 4.68628 1.99996 7.99999C1.99996 11.3137 4.68625 14 7.99996 14C11.3137 14 14 11.3137 14 7.99999C14 4.68628 11.3137 1.99999 7.99996 1.99999ZM0.666626 7.99999C0.666626 3.9499 3.94987 0.666656 7.99996 0.666656C12.05 0.666656 15.3333 3.9499 15.3333 7.99999C15.3333 12.0501 12.05 15.3333 7.99996 15.3333C3.94987 15.3333 0.666626 12.0501 0.666626 7.99999ZM8.17204 5.34954C7.86169 5.2963 7.54252 5.35462 7.27105 5.51417C6.99958 5.67371 6.79334 5.92418 6.68885 6.22122C6.56667 6.56855 6.18606 6.75106 5.83873 6.62888C5.4914 6.5067 5.30889 6.12609 5.43107 5.77876C5.64005 5.18469 6.05254 4.68374 6.59547 4.36466C7.13841 4.04557 7.77675 3.92893 8.39745 4.03539C9.01814 4.14186 9.58113 4.46456 9.98669 4.94634C10.3923 5.42812 10.6142 6.03789 10.6133 6.66765L9.94663 6.66666H10.6133C10.6133 6.66699 10.6133 6.66732 10.6133 6.66765C10.6128 7.68767 9.85652 8.3613 9.31643 8.72136C9.026 8.91497 8.74033 9.05733 8.52989 9.15086C8.42372 9.19805 8.33432 9.23386 8.26989 9.2584C8.23763 9.27069 8.21147 9.28022 8.19243 9.28699C8.1829 9.29037 8.17514 9.29308 8.16927 9.2951L8.1619 9.29762L8.1593 9.29849L8.15784 9.29898C8.15764 9.29905 8.15744 9.29911 7.94663 8.66666L7.73581 8.0342C7.73569 8.03424 7.73558 8.03428 7.73546 8.03432L7.74575 8.0307C7.756 8.02705 7.77281 8.02096 7.79523 8.01241C7.84019 7.99529 7.90704 7.9686 7.98837 7.93245C8.15292 7.85931 8.36725 7.75168 8.57683 7.61196C9.03656 7.30547 9.27996 6.97941 9.27996 6.66666L9.27996 6.66566C9.28043 6.35078 9.16944 6.0459 8.96666 5.80501C8.76388 5.56412 8.48239 5.40277 8.17204 5.34954ZM7.73449 8.03464C7.38605 8.15158 7.19789 8.52862 7.31417 8.87748C7.4306 9.22677 7.80815 9.41554 8.15744 9.29911L7.94663 8.66666C7.73581 8.0342 7.73563 8.03426 7.73546 8.03432L7.73449 8.03464C7.73453 8.03463 7.73442 8.03467 7.73449 8.03464ZM7.33329 11.3333C7.33329 10.9651 7.63177 10.6667 7.99996 10.6667H8.00663C8.37482 10.6667 8.67329 10.9651 8.67329 11.3333C8.67329 11.7015 8.37482 12 8.00663 12H7.99996C7.63177 12 7.33329 11.7015 7.33329 11.3333Z" fill="#CC3D6A"/>
</g>
<defs>
<clipPath id="clip0_5306_288">
<rect width="16" height="16" fill="white"/>
</clipPath>
</defs>
</svg>
